<?xml version="1.0" encoding="UTF-8" standalone="no"?>
<svg
   xmlns:dc="http://purl.org/dc/elements/1.1/"
   xmlns:cc="http://creativecommons.org/ns#"
   xmlns:rdf="http://www.w3.org/1999/02/22-rdf-syntax-ns#"
   xmlns:svg="http://www.w3.org/2000/svg"
   xmlns="http://www.w3.org/2000/svg"
   xmlns:sodipodi="http://sodipodi.sourceforge.net/DTD/sodipodi-0.dtd"
   xmlns:inkscape="http://www.inkscape.org/namespaces/inkscape"
   viewBox="0 0 32 32"
   version="1.1"
   id="svg12"
   sodipodi:docname="pencil.svg"
   width="32"
   height="32"
   inkscape:version="0.92.2 2405546, 2018-03-11">
  <metadata
     id="metadata16">
    <rdf:RDF>
      <cc:Work
         rdf:about="">
        <dc:format>image/svg+xml</dc:format>
        <dc:type
           rdf:resource="http://purl.org/dc/dcmitype/StillImage" />
        <dc:title></dc:title>
      </cc:Work>
    </rdf:RDF>
  </metadata>
  <sodipodi:namedview
     pagecolor="#ffffff"
     bordercolor="#666666"
     borderopacity="1"
     objecttolerance="10"
     gridtolerance="10"
     guidetolerance="10"
     inkscape:pageopacity="0"
     inkscape:pageshadow="2"
     inkscape:window-width="1865"
     inkscape:window-height="1016"
     id="namedview14"
     showgrid="false"
     fit-margin-top="0"
     fit-margin-left="0"
     fit-margin-right="0"
     fit-margin-bottom="0"
     inkscape:zoom="13.111111"
     inkscape:cx="8.9975314"
     inkscape:cy="8.9975502"
     inkscape:window-x="55"
     inkscape:window-y="30"
     inkscape:window-maximized="1"
     inkscape:current-layer="svg12" />
  <defs
     id="defs4">
    <style
       id="style2">.a{fill:#81c43b;}</style>
  </defs>
  <g
     transform="translate(-6.0024686,12.00245)"
     id="g10">
    <g
       transform="translate(6,2)"
       id="g8">
      <path
         d="m 31.009959,-10.113443 c -1.149898,-1.101273 -2.203939,-2.311642 -3.427425,-3.329309 -1.514463,-1.065896 -3.626444,-0.518792 -4.722062,0.877046 C 15.794646,-5.4933302 8.7187617,1.569521 1.6592192,8.6478463 1.2354525,9.5441338 1.2455411,10.600453 1.0010822,11.561996 0.68161763,13.433792 0.25305727,15.296156 0.00246862,17.173937 0.0779635,17.981602 1.0102815,18.138607 1.6399974,17.888622 4.1292681,17.413329 6.6317284,16.990081 9.1127399,16.482182 10.179314,15.654097 11.056126,14.578234 12.0477,13.652473 18.440454,7.2457048 24.865346,0.8695448 31.237987,-5.5563812 32.341362,-6.852499 32.23743,-8.933526 31.009959,-10.113443 Z M 2.107029,15.892811 c 0.2922181,-1.579154 0.5844365,-3.158309 0.8766546,-4.737463 1.2868271,1.286916 2.573654,2.573831 3.8604811,3.860748 -1.5790452,0.292238 -3.1580905,0.584477 -4.7371357,0.876715 z M 8.7681816,14.292317 C 7.0830367,12.605277 5.3978921,10.918238 3.7127473,9.231198 9.864148,3.0787793 16.015549,-3.0736393 22.16695,-9.226058 c 1.685145,1.6852613 3.370288,3.3705224 5.055434,5.0557837 C 21.070984,1.9839227 14.919582,8.1381191 8.7681816,14.292317 Z M 29.683418,-6.6314789 c -0.399504,0.3123336 -0.799007,0.9724716 -1.198511,1.0705509 -1.663805,-1.6639206 -3.327612,-3.3278413 -4.991417,-4.991762 0.76201,-0.681221 1.484052,-1.912102 2.685861,-1.504801 0.984606,0.514274 1.630178,1.500156 2.460317,2.226857 0.665905,0.7228586 1.814744,1.4401196 1.4167,2.5908151 -0.07381,0.2285185 -0.202831,0.4389142 -0.37295,0.60834 z"
         id="path6"
         inkscape:connector-curvature="0"
         style="stroke-width:1.7782656" />
    </g>
  </g>
</svg>
