<?xml version="1.0" encoding="UTF-8" standalone="no"?>
<svg
   xmlns:dc="http://purl.org/dc/elements/1.1/"
   xmlns:cc="http://creativecommons.org/ns#"
   xmlns:rdf="http://www.w3.org/1999/02/22-rdf-syntax-ns#"
   xmlns:svg="http://www.w3.org/2000/svg"
   xmlns="http://www.w3.org/2000/svg"
   xmlns:sodipodi="http://sodipodi.sourceforge.net/DTD/sodipodi-0.dtd"
   xmlns:inkscape="http://www.inkscape.org/namespaces/inkscape"
   viewBox="0 0 31.999999 32.000001"
   version="1.1"
   id="svg1698"
   sodipodi:docname="wast-basket.svg"
   width="32"
   height="32"
   inkscape:version="0.92.2 2405546, 2018-03-11">
  <metadata
     id="metadata1702">
    <rdf:RDF>
      <cc:Work
         rdf:about="">
        <dc:format>image/svg+xml</dc:format>
        <dc:type
           rdf:resource="http://purl.org/dc/dcmitype/StillImage" />
        <dc:title></dc:title>
      </cc:Work>
    </rdf:RDF>
  </metadata>
  <sodipodi:namedview
     pagecolor="#ffffff"
     bordercolor="#666666"
     borderopacity="1"
     objecttolerance="10"
     gridtolerance="10"
     guidetolerance="10"
     inkscape:pageopacity="0"
     inkscape:pageshadow="2"
     inkscape:window-width="1865"
     inkscape:window-height="1016"
     id="namedview1700"
     showgrid="false"
     inkscape:zoom="6.5759567"
     inkscape:cx="17.418876"
     inkscape:cy="10.063097"
     inkscape:window-x="55"
     inkscape:window-y="30"
     inkscape:window-maximized="1"
     inkscape:current-layer="svg1698" />
  <defs
     id="defs1686">
    <style
       id="style1684">.a{fill:#81c43b;}</style>
  </defs>
  <g
     transform="matrix(1.5050168,0,0,1.5050168,3.0835036,0.02962649)"
     id="g1696">
    <path
       d="m 11.671,18.615 c 0.50749,0.01018 0.64258,-0.55263 0.575,-0.95735 -0.0077,-2.06976 0.01532,-4.14143 -0.01147,-6.20998 -0.08879,-0.61851 -1.08123,-0.58952 -1.13377,0.03312 -0.0058,2.22374 -0.01721,4.45048 0.0057,6.67344 0.049,0.26292 0.29709,0.46543 0.56454,0.46077 z m -3.085,0 C 9.09349,18.62518 9.22858,18.06237 9.161,17.65765 9.15333,15.58789 9.17632,13.51622 9.14953,11.44767 9.06074,10.82916 8.0683,10.85815 8.01576,11.48079 c -0.0058,2.22374 -0.01721,4.45048 0.0057,6.67344 0.049,0.26292 0.29709,0.46543 0.56454,0.46077 z m -3.084,0 C 6.00949,18.62518 6.14458,18.06237 6.077,17.65765 6.06933,15.58789 6.09232,13.51622 6.06553,11.44767 5.97674,10.82916 4.9843,10.85815 4.93176,11.48079 c -0.0058,2.22374 -0.01721,4.45048 0.0057,6.67344 0.049,0.26292 0.29709,0.46543 0.56454,0.46077 z M 14.745,2.544 c -1.1,0 -2.2,0 -3.3,0 C 11.30043,0.65196 9.03525,-0.60247 7.3548,0.2789 6.28432,0.56235 6.02212,1.95374 5.57113,2.544 4.36244,2.56814 3.14725,2.49061 1.94349,2.59301 0.22941,2.87204 -0.56427,5.104 0.42635,6.47087 0.80469,7.11603 1.79547,7.1842 1.533,8.06408 c 0.00818,3.6627 -0.01644,7.32623 0.01243,10.9884 0.09781,1.37564 1.47045,2.34464 2.79592,2.18352 3.03828,-0.0082 6.07739,0.01641 9.11513,-0.01243 1.37564,-0.09781 2.34464,-1.47045 2.18352,-2.79592 0,-3.69288 0,-7.38577 0,-11.07865 C 17.37307,6.74166 17.7156,4.14656 16.25232,3.06906 15.82785,2.73101 15.28756,2.54288 14.745,2.544 Z M 8.587,1.151 c 0.68125,-0.21983 2.14143,1.15421 1.41889,1.394 -1.03696,0 -2.07393,0 -3.11089,0 C 7.0377,1.7528 7.78201,1.13953 8.587,1.151 Z m 5.9,17.66 c 0.02711,0.83868 -0.82496,1.40151 -1.60273,1.276 C 9.86674,20.0826 6.84877,20.0958 3.83152,20.0804 3.01303,20.02483 2.57092,19.17466 2.684,18.42863 c 0,-3.63588 0,-7.27177 0,-10.90765 3.935,0 7.87,0 11.805,0 -6.7e-4,3.76333 -0.0013,7.52667 -0.002,11.29 z M 16.022,5.1 C 16.04579,5.93798 15.19373,6.49608 14.41727,6.371 10.37774,6.36662 6.33777,6.37977 2.29852,6.36442 1.08939,6.29809 0.72507,4.49289 1.73887,3.8969 2.4004,3.5433 3.18088,3.7511 3.90079,3.695 7.55796,3.69938 11.21559,3.68623 14.87248,3.70158 15.56709,3.75765 16.08193,4.42021 16.022,5.1 Z"
       id="path1694"
       inkscape:connector-curvature="0" />
  </g>
</svg>
